<?xml version="1.0" encoding="iso-8859-1"?>
<!-- Generator: Adobe Illustrator 19.0.0, SVG Export Plug-In . SVG Version: 6.00 Build 0)  -->
<svg version="1.1" id="Layer_1" xmlns="http://www.w3.org/2000/svg" xmlns:xlink="http://www.w3.org/1999/xlink" x="0px" y="0px"
	 viewBox="0 0 511.999 511.999" style="enable-background:new 0 0 511.999 511.999;" xml:space="preserve">
<path style="fill:#ff0000;" d="M228.915,124.673l-21.941,58.453l29.656,33.743l7.893,7.341
	c12.629,11.746,20.816,27.491,23.18,44.576l0,0c2.068,14.945-0.427,30.166-7.158,43.67l-3.783,7.591l14.245,25.363l11.655,48.553
	c1.966,8.192-7.178,14.513-14.146,9.778l-63.732-43.297l-75.624-9.107c-3.287-0.396,2.244-15.002,6.828-26.785
	c3.421-8.792,4.254-18.374,2.403-27.625l-6.485-32.418c0.312-2.207,1.411-4.227,3.097-5.684l47.098-40.752l-16.931-37.69
	c0,0-31.352-7.88-36.153-7.215c-2.475,0.342-15.661-6.846-27.814-13.868c-13.708-7.918-22.999-21.713-25.169-37.394l0,0
	l-7.137-16.754c36.864-45.776,90.569-78.122,153.378-86.81c1.552-0.214,3.107-0.415,4.65-0.585l18.969,26.465
	c7.373,10.288,10.683,22.938,9.289,35.52l-2.98,26.922C251.469,113.31,232.12,118.807,228.915,124.673z"/>
<path style="fill:#ff0000;" d="M486.957,149.214c26.806-55.086,36.023-105.878,7.917-133.985c-6.242-6.24-16.358-6.24-22.601,0
	c-6.24,6.24-6.24,16.359,0,22.6c11.153,11.153,10.395,38.171-4.762,76.353c-22.79-34.368-53.868-63.135-91.1-83.328
	c-0.548-0.344-1.109-0.658-1.686-0.93c-2.303-1.227-4.628-2.421-6.975-3.583C323.565,4.526,274.491-3.873,225.492,1.856
	c-0.104,0.01-0.206,0.002-0.31,0.013c-1.331,0.145-2.672,0.324-4.009,0.503c-0.368,0.05-0.734,0.082-1.101,0.133
	c-1.78,0.246-3.551,0.526-5.32,0.807c-0.248,0.04-0.497,0.072-0.745,0.113c-1.651,0.267-3.294,0.563-4.935,0.861
	c-0.409,0.075-0.82,0.142-1.229,0.219c-1.729,0.323-3.45,0.671-5.168,1.029c-0.273,0.058-0.547,0.11-0.82,0.168
	c-1.862,0.393-3.714,0.81-5.563,1.245c-0.066,0.016-0.129,0.03-0.195,0.045c-17.443,4.109-34.267,10.005-50.364,17.649
	c-0.329,0.155-0.657,0.312-0.984,0.47c-1.382,0.663-2.76,1.338-4.131,2.026c-0.713,0.358-1.422,0.722-2.13,1.087
	c-1.045,0.539-2.09,1.075-3.129,1.628c-1.274,0.676-2.538,1.371-3.8,2.069c-0.51,0.283-1.021,0.556-1.529,0.842
	c-27.985,15.73-52.97,36.771-73.579,62.364c-3.701,4.596-4.569,10.857-2.256,16.286l6.359,14.919
	c3.397,19.749,15.204,36.717,32.658,46.799c25.856,14.937,30.711,16.022,35.616,16.022c0.002,0,0.006,0,0.01,0
	c0.344,0,0.689-0.01,1.032-0.03c3.34,0.291,13.727,2.499,23.926,4.925l8.858,19.717l-38.102,32.968
	c-4.61,3.989-7.616,9.507-8.465,15.543c-0.251,1.783-0.198,3.596,0.155,5.361l6.485,32.419c1.254,6.274,0.694,12.738-1.627,18.696
	c-8.112,20.846-11.77,31.269-6.338,40.331c2.713,4.529,7.268,7.487,12.492,8.115l71.766,8.644l31.974,21.722
	c-29.869,22.906-57.459,40.688-81.999,53.784c-9.887-5.368-19.442-11.514-28.581-18.43c-47.499-35.953-78.151-88.25-86.315-147.26
	c-3.652-26.398-2.619-52.852,3.075-78.627c1.903-8.618-3.54-17.147-12.158-19.05c-8.612-1.903-17.145,3.54-19.05,12.158
	c-6.512,29.489-7.698,59.735-3.524,89.899c9.333,67.465,44.379,127.257,98.684,168.363c4.281,3.241,8.644,6.331,13.077,9.278
	c-38.172,15.196-65.183,15.934-76.447,4.671c-6.242-6.24-16.358-6.24-22.601,0c-6.24,6.24-6.24,16.359,0,22.601
	c8.842,8.842,23.352,16.941,46.842,16.941c15.565,0,35.072-3.559,59.482-12.815c8.896-3.373,18.112-7.397,27.571-11.971
	c33.032,15.167,68.845,23.021,105.436,23.02c11.763,0,23.616-0.812,35.47-2.451c98.986-13.694,181.28-84.482,209.657-180.345
	c10.311-34.849,12.995-70.907,7.977-107.171C504.15,195.3,497.108,171.458,486.957,149.214z M451.189,149.027
	c-3.375,6.339-7.025,12.858-11.033,19.592c-4.666-2.28-15.822-7.591-33.755-15.276c-7.148-3.062-14.823-5.468-22.542-2.375
	c-4.548,1.823-7.317,4.871-9.016,7.508c-2.074-0.237-5.309-0.793-10.132-2.047c-9.754-2.538-12.914-5.727-13.221-7.06
	c-0.748-3.231,3.532-11.399,10.167-17.086c8.89-7.621,10.951-15.712,11.111-21.158c0.368-12.362-7.925-21.029-14.539-27.451
	c2.442-4.604,7.417-11.685,13.195-18.83C405.292,85.592,432.657,114.748,451.189,149.027z M206.695,344.575l-58.56-7.052
	c1.101-2.956,2.153-5.657,2.745-7.178c4.535-11.651,5.633-24.293,3.18-36.557l-5.17-25.852l43.665-37.783
	c5.339-4.618,7.014-12.193,4.121-18.633l-16.931-37.69c-2.004-4.462-5.94-7.758-10.683-8.951
	c-10.887-2.736-29.762-7.23-38.053-7.698c-2.181-0.946-8.019-3.754-21.816-11.723c-9.512-5.496-15.829-14.881-17.334-25.746
	c-0.193-1.401-0.572-2.773-1.127-4.073l-3.292-7.723c14.315-16.322,30.767-30.302,48.817-41.661
	c1.256-0.791,2.519-1.568,3.786-2.332c0.534-0.321,1.068-0.639,1.604-0.956c0.949-0.561,1.903-1.111,2.859-1.657
	c0.737-0.42,1.472-0.844,2.213-1.254c0.558-0.31,1.119-0.609,1.68-0.914c19.021-10.346,39.576-17.914,61.119-22.385
	c0.284-0.059,0.569-0.118,0.855-0.176c1.29-0.262,2.584-0.513,3.88-0.754c0.537-0.099,1.076-0.193,1.612-0.288
	c1.165-0.208,2.332-0.412,3.503-0.602c0.061-0.01,0.123-0.018,0.184-0.029l13.348,18.624c5.085,7.092,7.356,15.777,6.395,24.452
	l-2.461,22.229c-1.488,0.893-3.354,1.913-4.677,2.635c-6.68,3.648-13.587,7.42-17.272,14.165c-0.361,0.658-0.674,1.342-0.938,2.045
	l-21.941,58.453c-2.073,5.521-0.935,11.736,2.958,16.166l29.656,33.743c0.355,0.403,0.729,0.788,1.12,1.152l7.893,7.34
	c9.905,9.214,16.38,21.666,18.234,35.064c1.632,11.805-0.313,23.683-5.63,34.352l-3.783,7.591
	c-2.362,4.738-2.223,10.338,0.369,14.953l13.157,23.426l7.059,29.406l-49.28-33.479C211.656,345.788,209.23,344.88,206.695,344.575z
	 M468.964,318.259c-24.821,83.856-96.806,145.778-183.39,157.756c-34.093,4.717-68.061,1.584-99.833-8.823
	c23.474-14.04,48.016-31.077,73.026-50.755l0.769,0.523c4.225,2.87,9.114,4.387,14.138,4.387c7.663,0,15.09-3.62,19.87-9.681
	c4.777-6.058,6.475-13.869,4.658-21.435l-11.655-48.553c-0.344-1.432-0.884-2.811-1.606-4.096l-10.1-17.983l0.008-0.016
	c8.201-16.455,11.204-34.778,8.684-52.986c-2.857-20.667-12.845-39.876-28.126-54.089l-7.305-6.793l-22.801-25.941l17.313-46.121
	c1.389-0.855,3.393-1.948,4.868-2.755c8.591-4.692,19.284-10.531,20.607-22.473l2.98-26.924c1.83-16.529-2.498-33.073-12.185-46.586
	l-2.049-2.857c29.458,0.2,58.48,6.252,85.669,17.88c-1.175,1.528-2.357,3.1-3.522,4.709c-6.811,9.404-22.758,31.429-8.53,46.493
	c1.481,1.568,3.022,3.057,4.511,4.495c1.154,1.114,2.742,2.65,4.041,4.037c-11.602,10.739-22.839,28.779-18.656,46.893
	c2.394,10.362,10.637,24.116,36.314,30.797c14.523,3.779,30.021,5.937,39.705-3.541c12.597,5.437,21.419,9.528,26.529,11.963
	c-7.786,11.56-16.402,23.554-25.917,35.94c-8.698-4.101-18.403-6.405-28.639-6.405c-37.162,0-67.396,30.233-67.396,67.396
	s30.233,67.396,67.396,67.396s67.396-30.233,67.396-67.396c0-15.376-5.187-29.557-13.889-40.911
	c16.329-21.252,31.791-43.62,45.157-65.948c4.077,12.49,7.092,25.42,8.925,38.682C480.32,256.269,477.976,287.801,468.964,318.259z
	 M403.776,292.714c0,19.539-15.896,35.435-35.435,35.435s-35.435-15.896-35.435-35.435c0-19.539,15.896-35.435,35.435-35.435
	S403.776,273.175,403.776,292.714z"/>
<g>
</g>
<g>
</g>
<g>
</g>
<g>
</g>
<g>
</g>
<g>
</g>
<g>
</g>
<g>
</g>
<g>
</g>
<g>
</g>
<g>
</g>
<g>
</g>
<g>
</g>
<g>
</g>
<g>
</g>
</svg>
