<svg id="Capa_1" enable-background="new 0 0 512.661 512.661" height="512" viewBox="0 0 512.661 512.661" width="512" xmlns="http://www.w3.org/2000/svg"><g><path style="fill:#fff;"  d="m180.362 19.834c-67.813 37.045-101.666 120.123-71.641 196.853l57.445 146.804v76.659l35.661 72.511h108.678l35.661-72.511v-76.659l57.445-146.804c53.738-137.325-94.028-267.441-223.249-196.853zm90.805 325.827h-30v-135c0-8.271 6.729-15 15-15s15 6.729 15 15zm45 30v46h-120v-46zm-95.661 107-15.246-31h101.814l-15.246 31zm155.168-276.906-54.745 139.905h-19.762v-135c0-24.813-20.187-45-45-45s-45 20.187-45 45v135h-19.762l-54.745-139.905c-32.776-83.762 28.497-175.095 119.507-175.095 89.946.001 152.671 90.342 119.507 175.095z"/></g></svg>